<svg xmlns="http://www.w3.org/2000/svg" xmlns:xlink="http://www.w3.org/1999/xlink" width="500" zoomAndPan="magnify" viewBox="0 0 375 187.499995" height="250" preserveAspectRatio="xMidYMid meet" version="1.0"><defs><g/><clipPath id="3129076ae7"><path d="M 23 50 L 118 50 L 118 135.902344 L 23 135.902344 Z M 23 50 " clip-rule="nonzero"/></clipPath></defs><g fill="#c27e98" fill-opacity="1"><g transform="translate(118.770749, 131.467314)"><g><path d="M 37.34375 -62.828125 C 46.726562 -62.828125 54.367188 -61.253906 60.265625 -58.109375 C 66.160156 -54.972656 69.109375 -49.875 69.109375 -42.8125 L 69.109375 -18.84375 C 69.109375 -17.53125 69.414062 -16.445312 70.03125 -15.59375 C 70.65625 -14.738281 71.585938 -14.3125 72.828125 -14.3125 L 77.015625 -14.3125 L 77.015625 -0.9375 C 76.785156 -0.78125 76.1875 -0.523438 75.21875 -0.171875 C 74.25 0.171875 72.867188 0.515625 71.078125 0.859375 C 69.296875 1.210938 67.242188 1.390625 64.921875 1.390625 C 60.421875 1.390625 56.71875 0.710938 53.8125 -0.640625 C 50.90625 -1.992188 48.90625 -3.875 47.8125 -6.28125 C 44.863281 -3.957031 41.566406 -2.097656 37.921875 -0.703125 C 34.273438 0.691406 30.007812 1.390625 25.125 1.390625 C 10.695312 1.390625 3.484375 -4.347656 3.484375 -15.828125 C 3.484375 -21.796875 5.09375 -26.347656 8.3125 -29.484375 C 11.53125 -32.628906 16.164062 -34.785156 22.21875 -35.953125 C 28.269531 -37.117188 36.179688 -37.703125 45.953125 -37.703125 L 45.953125 -40.71875 C 45.953125 -43.125 45.117188 -44.945312 43.453125 -46.1875 C 41.785156 -47.425781 39.632812 -48.046875 37 -48.046875 C 34.59375 -48.046875 32.515625 -47.617188 30.765625 -46.765625 C 29.023438 -45.910156 28.15625 -44.554688 28.15625 -42.703125 L 28.15625 -42.234375 L 5.359375 -42.234375 C 5.273438 -42.617188 5.234375 -43.160156 5.234375 -43.859375 C 5.234375 -49.679688 8.003906 -54.296875 13.546875 -57.703125 C 19.097656 -61.117188 27.03125 -62.828125 37.34375 -62.828125 Z M 45.953125 -26.765625 C 39.359375 -26.765625 34.488281 -26.046875 31.34375 -24.609375 C 28.207031 -23.171875 26.640625 -21.25 26.640625 -18.84375 C 26.640625 -14.96875 29.273438 -13.03125 34.546875 -13.03125 C 37.578125 -13.03125 40.234375 -13.84375 42.515625 -15.46875 C 44.804688 -17.101562 45.953125 -19.125 45.953125 -21.53125 Z M 45.953125 -26.765625 "/></g></g></g><g fill="#c27e98" fill-opacity="1"><g transform="translate(196.36765, 131.467314)"><g><path d="M 37.34375 -62.828125 C 46.726562 -62.828125 54.367188 -61.253906 60.265625 -58.109375 C 66.160156 -54.972656 69.109375 -49.875 69.109375 -42.8125 L 69.109375 -18.84375 C 69.109375 -17.53125 69.414062 -16.445312 70.03125 -15.59375 C 70.65625 -14.738281 71.585938 -14.3125 72.828125 -14.3125 L 77.015625 -14.3125 L 77.015625 -0.9375 C 76.785156 -0.78125 76.1875 -0.523438 75.21875 -0.171875 C 74.25 0.171875 72.867188 0.515625 71.078125 0.859375 C 69.296875 1.210938 67.242188 1.390625 64.921875 1.390625 C 60.421875 1.390625 56.71875 0.710938 53.8125 -0.640625 C 50.90625 -1.992188 48.90625 -3.875 47.8125 -6.28125 C 44.863281 -3.957031 41.566406 -2.097656 37.921875 -0.703125 C 34.273438 0.691406 30.007812 1.390625 25.125 1.390625 C 10.695312 1.390625 3.484375 -4.347656 3.484375 -15.828125 C 3.484375 -21.796875 5.09375 -26.347656 8.3125 -29.484375 C 11.53125 -32.628906 16.164062 -34.785156 22.21875 -35.953125 C 28.269531 -37.117188 36.179688 -37.703125 45.953125 -37.703125 L 45.953125 -40.71875 C 45.953125 -43.125 45.117188 -44.945312 43.453125 -46.1875 C 41.785156 -47.425781 39.632812 -48.046875 37 -48.046875 C 34.59375 -48.046875 32.515625 -47.617188 30.765625 -46.765625 C 29.023438 -45.910156 28.15625 -44.554688 28.15625 -42.703125 L 28.15625 -42.234375 L 5.359375 -42.234375 C 5.273438 -42.617188 5.234375 -43.160156 5.234375 -43.859375 C 5.234375 -49.679688 8.003906 -54.296875 13.546875 -57.703125 C 19.097656 -61.117188 27.03125 -62.828125 37.34375 -62.828125 Z M 45.953125 -26.765625 C 39.359375 -26.765625 34.488281 -26.046875 31.34375 -24.609375 C 28.207031 -23.171875 26.640625 -21.25 26.640625 -18.84375 C 26.640625 -14.96875 29.273438 -13.03125 34.546875 -13.03125 C 37.578125 -13.03125 40.234375 -13.84375 42.515625 -15.46875 C 44.804688 -17.101562 45.953125 -19.125 45.953125 -21.53125 Z M 45.953125 -26.765625 "/></g></g></g><g fill="#c27e98" fill-opacity="1"><g transform="translate(273.964552, 131.467314)"><g><path d="M 42.234375 -81.4375 C 52.472656 -81.4375 60.890625 -79.359375 67.484375 -75.203125 C 74.078125 -71.054688 77.445312 -64.914062 77.59375 -56.78125 L 77.59375 -55.375 L 53.515625 -55.375 L 53.515625 -55.84375 C 53.515625 -58.164062 52.660156 -60.101562 50.953125 -61.65625 C 49.253906 -63.207031 46.65625 -63.984375 43.15625 -63.984375 C 39.75 -63.984375 37.132812 -63.476562 35.3125 -62.46875 C 33.488281 -61.46875 32.578125 -60.226562 32.578125 -58.75 C 32.578125 -56.65625 33.816406 -55.101562 36.296875 -54.09375 C 38.773438 -53.09375 42.769531 -52.046875 48.28125 -50.953125 C 54.71875 -49.640625 60.007812 -48.265625 64.15625 -46.828125 C 68.3125 -45.390625 71.941406 -43.039062 75.046875 -39.78125 C 78.148438 -36.53125 79.738281 -32.113281 79.8125 -26.53125 C 79.8125 -17.0625 76.609375 -10.039062 70.203125 -5.46875 C 63.804688 -0.894531 55.257812 1.390625 44.5625 1.390625 C 32.070312 1.390625 22.351562 -0.703125 15.40625 -4.890625 C 8.46875 -9.078125 5 -16.484375 5 -27.109375 L 29.3125 -27.109375 C 29.3125 -23.078125 30.359375 -20.378906 32.453125 -19.015625 C 34.546875 -17.660156 37.804688 -16.984375 42.234375 -16.984375 C 45.492188 -16.984375 48.1875 -17.332031 50.3125 -18.03125 C 52.445312 -18.726562 53.515625 -20.164062 53.515625 -22.34375 C 53.515625 -24.28125 52.332031 -25.734375 49.96875 -26.703125 C 47.601562 -27.671875 43.742188 -28.695312 38.390625 -29.78125 C 31.878906 -31.175781 26.488281 -32.628906 22.21875 -34.140625 C 17.957031 -35.660156 14.234375 -38.164062 11.046875 -41.65625 C 7.867188 -45.144531 6.28125 -49.875 6.28125 -55.84375 C 6.28125 -64.601562 9.671875 -71.054688 16.453125 -75.203125 C 23.242188 -79.359375 31.835938 -81.4375 42.234375 -81.4375 Z M 42.234375 -81.4375 "/></g></g></g><g clip-path="url(#3129076ae7)"><path fill="#f478a8" d="M 117.046875 71.59375 C 111.769531 44.144531 78.6875 43.6875 70.527344 69.347656 C 62.371094 43.6875 29.289062 44.144531 24.011719 71.59375 C 19.222656 96.5 70.527344 135.792969 70.527344 135.792969 C 70.527344 135.792969 121.835938 96.5 117.046875 71.59375 Z M 117.046875 71.59375 " fill-opacity="1" fill-rule="nonzero"/></g></svg>